<?xml version="1.0" encoding="UTF-8"?>
<!DOCTYPE svg PUBLIC "-//W3C//DTD SVG 1.1//EN" "http://www.w3.org/Graphics/SVG/1.1/DTD/svg11.dtd">
<svg xmlns="http://www.w3.org/2000/svg" version="1.1" width="815px" height="250px" style="shape-rendering:geometricPrecision; text-rendering:geometricPrecision; image-rendering:optimizeQuality; fill-rule:evenodd; clip-rule:evenodd" xmlns:xlink="http://www.w3.org/1999/xlink">
<g><path style="opacity:1" fill="#fdfdfd" d="M -0.5,-0.5 C 271.167,-0.5 542.833,-0.5 814.5,-0.5C 814.5,82.8333 814.5,166.167 814.5,249.5C 542.833,249.5 271.167,249.5 -0.5,249.5C -0.5,166.167 -0.5,82.8333 -0.5,-0.5 Z"/></g>
<g><path style="opacity:1" fill="#eb8c3b" d="M 394.5,26.5 C 390.843,25.838 387.176,25.1713 383.5,24.5C 380.158,25.1738 376.825,25.8405 373.5,26.5C 380.5,22.5 387.5,22.5 394.5,26.5 Z"/></g>
<g><path style="opacity:1" fill="#fe7901" d="M 394.5,26.5 C 399.105,27.9557 402.105,30.9557 403.5,35.5C 405.147,42.9541 404.813,50.2874 402.5,57.5C 402.013,58.4734 401.513,59.4734 401,60.5C 373.298,88.0347 345.798,115.701 318.5,143.5C 316.167,145.5 313.833,147.5 311.5,149.5C 309.824,150.183 309.157,151.517 309.5,153.5C 331.193,153.211 352.86,153.544 374.5,154.5C 378.365,156.025 381.698,158.358 384.5,161.5C 390.949,175.474 387.949,186.807 375.5,195.5C 374.167,195.5 372.833,195.5 371.5,195.5C 331.832,195.667 292.165,195.5 252.5,195C 249.793,194.605 247.127,194.105 244.5,193.5C 239.662,191.329 236.662,187.663 235.5,182.5C 234.35,141.529 234.184,100.529 235,59.5C 236.128,57.6547 236.628,55.6547 236.5,53.5C 238.5,49.5 241.5,46.5 245.5,44.5C 248.722,44.1497 251.888,43.4831 255,42.5C 259.443,43.9244 263.943,45.2577 268.5,46.5C 270.167,47.5 271.5,48.8333 272.5,50.5C 273.745,53.0087 274.745,55.6754 275.5,58.5C 276.167,78.996 276.833,99.3293 277.5,119.5C 278.708,120.782 280.042,120.782 281.5,119.5C 312.188,88.4791 342.854,57.4791 373.5,26.5C 376.825,25.8405 380.158,25.1738 383.5,24.5C 387.176,25.1713 390.843,25.838 394.5,26.5 Z"/></g>
<g><path style="opacity:1" fill="#000000" d="M 132.5,88.5 C 133.289,88.2172 133.956,87.7172 134.5,87C 114.503,86.5 94.5028,86.3334 74.5,86.5C 60.0028,82.1859 54.1695,72.5192 57,57.5C 59.8333,50.6667 64.6667,45.8333 71.5,43C 112.833,42.3333 154.167,42.3333 195.5,43C 202.359,45.8589 207.192,50.6923 210,57.5C 210.667,98.5 210.667,139.5 210,180.5C 204.054,194.886 193.554,199.72 178.5,195C 172.349,191.521 168.516,186.354 167,179.5C 166.667,159.167 166.333,138.833 166,118.5C 135.167,149.333 104.333,180.167 73.5,211C 59.985,218.662 48.8184,216.162 40,203.5C 36.7474,196.489 36.7474,189.489 40,182.5C 70.6735,150.993 101.507,119.66 132.5,88.5 Z"/></g>
<g><path style="opacity:1" fill="#070707" d="M 474.5,42.5 C 506.038,41.2063 519.538,56.2063 515,87.5C 508.546,105.649 495.713,113.482 476.5,111C 462.82,107.318 454.653,98.4848 452,84.5C 448.849,64.4525 456.349,50.4525 474.5,42.5 Z"/></g>
<g><path style="opacity:1" fill="#f08f3c" d="M 268.5,46.5 C 263.943,45.2577 259.443,43.9244 255,42.5C 251.888,43.4831 248.722,44.1497 245.5,44.5C 253.475,40.3095 261.141,40.9762 268.5,46.5 Z"/></g>
<g><path style="opacity:1" fill="#ec8934" d="M 403.5,35.5 C 405.895,38.1199 406.895,41.2866 406.5,45C 406.762,49.823 405.428,53.9896 402.5,57.5C 404.813,50.2874 405.147,42.9541 403.5,35.5 Z"/></g>
<g><path style="opacity:1" fill="#fafafa" d="M 477.5,54.5 C 490.025,52.3376 497.859,57.3376 501,69.5C 502.898,78.8683 501.065,87.3683 495.5,95C 486.24,101.676 477.74,100.843 470,92.5C 463.694,81.2323 464.028,70.2323 471,59.5C 473.326,57.9343 475.492,56.2676 477.5,54.5 Z"/></g>
<g><path style="opacity:1" fill="#e9852d" d="M 373.5,26.5 C 342.854,57.4791 312.188,88.4791 281.5,119.5C 280.042,120.782 278.708,120.782 277.5,119.5C 278.492,119.672 279.158,119.338 279.5,118.5C 280.5,118.167 281.167,117.5 281.5,116.5C 311.632,86.8682 341.632,57.0348 371.5,27C 372.094,26.5357 372.761,26.369 373.5,26.5 Z"/></g>
<g><path style="opacity:1" fill="#020202" d="M 552.5,60.5 C 552.817,64.7016 552.483,68.7016 551.5,72.5C 544.117,71.7721 538.951,74.7721 536,81.5C 535.5,90.8274 535.334,100.161 535.5,109.5C 531.167,109.5 526.833,109.5 522.5,109.5C 522.5,93.8333 522.5,78.1667 522.5,62.5C 526.5,62.5 530.5,62.5 534.5,62.5C 534.336,65.1873 534.503,67.854 535,70.5C 536.039,69.7562 536.539,68.7562 536.5,67.5C 540.602,62.4623 545.935,60.129 552.5,60.5 Z"/></g>
<g><path style="opacity:1" fill="#575757" d="M 552.5,60.5 C 553.811,64.6829 553.811,69.0162 552.5,73.5C 551.893,73.3764 551.56,73.0431 551.5,72.5C 552.483,68.7016 552.817,64.7016 552.5,60.5 Z"/></g>
<g><path style="opacity:1" fill="#060606" d="M 580.5,109.5 C 575.537,110.254 570.537,110.587 565.5,110.5C 554.59,106.721 551.423,99.3873 556,88.5C 558.441,86.0314 561.274,84.198 564.5,83C 570.55,82.2786 576.55,81.2786 582.5,80C 584.852,79.4241 585.852,77.9241 585.5,75.5C 585.112,70.6265 582.445,68.6265 577.5,69.5C 572.436,69.2351 569.436,71.5685 568.5,76.5C 564.167,76.5 559.833,76.5 555.5,76.5C 556.898,67.9345 561.898,62.7678 570.5,61C 580.068,59.0365 588.734,60.8698 596.5,66.5C 597,67.5 597.5,68.5 598,69.5C 598.333,80.5 598.667,91.5 599,102.5C 599.236,104.764 599.736,106.931 600.5,109C 596.129,109.828 591.795,109.661 587.5,108.5C 587,107.5 586.5,106.5 586,105.5C 584.188,106.977 582.355,108.31 580.5,109.5 Z"/></g>
<g><path style="opacity:1" fill="#030303" d="M 607.5,109.5 C 607.5,93.8333 607.5,78.1667 607.5,62.5C 611.167,62.5 614.833,62.5 618.5,62.5C 618.201,64.604 618.534,66.604 619.5,68.5C 620.107,68.3764 620.44,68.0431 620.5,67.5C 626.372,60.5142 633.706,58.6809 642.5,62C 647.336,63.8186 650.169,67.3186 651,72.5C 651.5,84.8288 651.667,97.1622 651.5,109.5C 647.167,109.5 642.833,109.5 638.5,109.5C 638.667,98.495 638.5,87.495 638,76.5C 634.96,70.6318 630.46,69.1318 624.5,72C 622.383,73.7309 620.883,75.8976 620,78.5C 619.5,88.828 619.334,99.1613 619.5,109.5C 615.5,109.5 611.5,109.5 607.5,109.5 Z"/></g>
<g><path style="opacity:1" fill="#060606" d="M 690.5,66.5 C 690.56,67.0431 690.893,67.3764 691.5,67.5C 692.452,65.9547 692.785,64.288 692.5,62.5C 696.167,62.5 699.833,62.5 703.5,62.5C 703.5,79.1667 703.5,95.8333 703.5,112.5C 702.185,119.318 698.185,123.818 691.5,126C 681.671,128.748 672.337,127.748 663.5,123C 660.397,120.194 658.73,116.694 658.5,112.5C 662.846,112.334 667.179,112.501 671.5,113C 675.724,119.987 681.39,121.32 688.5,117C 689.914,115.007 690.914,112.84 691.5,110.5C 692.803,107.645 692.803,104.645 691.5,101.5C 690.893,101.624 690.56,101.957 690.5,102.5C 680.144,111.075 670.311,110.408 661,100.5C 656.051,89.2795 656.384,78.2795 662,67.5C 671.332,58.6224 680.832,58.2891 690.5,66.5 Z"/></g>
<g><path style="opacity:1" fill="#090909" d="M 757.5,88.5 C 745.833,88.5 734.167,88.5 722.5,88.5C 722.263,89.791 722.596,90.791 723.5,91.5C 725.483,100.119 730.817,102.952 739.5,100C 741.64,99.0267 743.307,97.5267 744.5,95.5C 748.5,94.1667 752.5,94.1667 756.5,95.5C 750.37,108.814 740.036,113.648 725.5,110C 716.649,106.477 711.482,99.9769 710,90.5C 708.52,73.1005 716.354,63.1005 733.5,60.5C 750.332,62.1247 758.332,71.4581 757.5,88.5 Z"/></g>
<g><path style="opacity:1" fill="#eb801f" d="M 272.5,50.5 C 273.458,50.9528 274.292,51.6195 275,52.5C 275.658,55.2848 276.491,57.9514 277.5,60.5C 277.5,80.1667 277.5,99.8333 277.5,119.5C 276.833,99.3293 276.167,78.996 275.5,58.5C 274.745,55.6754 273.745,53.0087 272.5,50.5 Z"/></g>
<g><path style="opacity:1" fill="#fff8df" d="M 278.5,62.5 C 278.838,80.6899 279.838,98.6899 281.5,116.5C 281.167,117.5 280.5,118.167 279.5,118.5C 278.503,100.007 278.17,81.3408 278.5,62.5 Z"/></g>
<g><path style="opacity:1" fill="#858585" d="M 522.5,62.5 C 526.634,61.5151 530.968,61.1818 535.5,61.5C 535.205,63.7354 535.539,65.7354 536.5,67.5C 536.539,68.7562 536.039,69.7562 535,70.5C 534.503,67.854 534.336,65.1873 534.5,62.5C 530.5,62.5 526.5,62.5 522.5,62.5 Z"/></g>
<g><path style="opacity:1" fill="#3c3c3c" d="M 620.5,67.5 C 620.44,68.0431 620.107,68.3764 619.5,68.5C 618.534,66.604 618.201,64.604 618.5,62.5C 614.833,62.5 611.167,62.5 607.5,62.5C 607.5,78.1667 607.5,93.8333 607.5,109.5C 606.504,93.6754 606.17,77.6754 606.5,61.5C 610.833,61.5 615.167,61.5 619.5,61.5C 619.205,63.7354 619.539,65.7354 620.5,67.5 Z"/></g>
<g><path style="opacity:1" fill="#393939" d="M 703.5,112.5 C 703.5,95.8333 703.5,79.1667 703.5,62.5C 699.833,62.5 696.167,62.5 692.5,62.5C 692.785,64.288 692.452,65.9547 691.5,67.5C 690.893,67.3764 690.56,67.0431 690.5,66.5C 691.451,65.0813 691.784,63.4147 691.5,61.5C 695.833,61.5 700.167,61.5 704.5,61.5C 704.83,78.6749 704.497,95.6749 703.5,112.5 Z"/></g>
<g><path style="opacity:1" fill="#fac18c" d="M 277.5,60.5 C 278.338,60.8417 278.672,61.5084 278.5,62.5C 278.17,81.3408 278.503,100.007 279.5,118.5C 279.158,119.338 278.492,119.672 277.5,119.5C 277.5,99.8333 277.5,80.1667 277.5,60.5 Z"/></g>
<g><path style="opacity:1" fill="#e88429" d="M 236.5,53.5 C 236.628,55.6547 236.128,57.6547 235,59.5C 234.184,100.529 234.35,141.529 235.5,182.5C 234.778,182.082 234.278,181.416 234,180.5C 233.333,139.5 233.333,98.5 234,57.5C 234.608,55.9336 235.442,54.6002 236.5,53.5 Z"/></g>
<g><path style="opacity:1" fill="#f9f9f9" d="M 676.5,70.5 C 689.782,70.6672 694.615,77.3339 691,90.5C 688.386,97.1565 683.553,99.6565 676.5,98C 675,96.5 673.5,95 672,93.5C 670.561,88.2375 670.228,82.9042 671,77.5C 671.967,74.3794 673.8,72.046 676.5,70.5 Z"/></g>
<g><path style="opacity:1" fill="#f6f6f6" d="M 729.5,70.5 C 737.175,69.1667 742.175,72.1667 744.5,79.5C 737.532,80.497 730.532,80.8303 723.5,80.5C 723.469,75.8868 725.469,72.5535 729.5,70.5 Z"/></g>
<g><path style="opacity:1" fill="#b2b2b2" d="M 74.5,86.5 C 94.5028,86.3334 114.503,86.5 134.5,87C 133.956,87.7172 133.289,88.2172 132.5,88.5C 113.167,87.8333 93.8333,87.1667 74.5,86.5 Z"/></g>
<g><path style="opacity:1" fill="#f4f4f4" d="M 581.5,87.5 C 582.833,87.5 584.167,87.5 585.5,87.5C 587.384,96.4247 583.884,101.425 575,102.5C 568.378,102.207 566.044,98.8736 568,92.5C 572.054,89.3672 576.554,87.7006 581.5,87.5 Z"/></g>
<g><path style="opacity:1" fill="#868686" d="M 757.5,88.5 C 745.963,88.841 734.63,89.841 723.5,91.5C 722.596,90.791 722.263,89.791 722.5,88.5C 734.167,88.5 745.833,88.5 757.5,88.5 Z"/></g>
<g><path style="opacity:1" fill="#5d5d5d" d="M 690.5,102.5 C 690.56,101.957 690.893,101.624 691.5,101.5C 692.803,104.645 692.803,107.645 691.5,110.5C 691.806,107.615 691.473,104.948 690.5,102.5 Z"/></g>
<g><path style="opacity:1" fill="#b4b4b4" d="M 580.5,109.5 C 577.814,110.991 574.814,111.657 571.5,111.5C 569.304,111.495 567.304,111.162 565.5,110.5C 570.537,110.587 575.537,110.254 580.5,109.5 Z"/></g>
<g><path style="opacity:1" fill="#a2a2a2" d="M 471.5,131.5 C 464.833,131.5 458.167,131.5 451.5,131.5C 451.5,153.167 451.5,174.833 451.5,196.5C 455.833,196.5 460.167,196.5 464.5,196.5C 460.03,197.486 455.363,197.819 450.5,197.5C 450.5,175.167 450.5,152.833 450.5,130.5C 457.687,130.175 464.687,130.509 471.5,131.5 Z"/></g>
<g><path style="opacity:1" fill="#040404" d="M 522.5,196.5 C 518.167,196.5 513.833,196.5 509.5,196.5C 509.833,181.152 509.499,165.819 508.5,150.5C 507.702,150.957 507.369,151.624 507.5,152.5C 502.687,166.94 497.687,181.274 492.5,195.5C 488.555,196.491 484.555,196.824 480.5,196.5C 476.432,182.296 471.765,168.296 466.5,154.5C 466.291,153.078 465.791,151.745 465,150.5C 464.5,165.83 464.333,181.163 464.5,196.5C 460.167,196.5 455.833,196.5 451.5,196.5C 451.5,174.833 451.5,153.167 451.5,131.5C 458.167,131.5 464.833,131.5 471.5,131.5C 476.952,145.919 482.118,160.586 487,175.5C 492.415,160.674 497.248,145.674 501.5,130.5C 508.5,130.5 515.5,130.5 522.5,130.5C 522.5,152.5 522.5,174.5 522.5,196.5 Z"/></g>
<g><path style="opacity:1" fill="#080808" d="M 548.5,147.5 C 569.645,147.145 579.145,157.478 577,178.5C 575.288,189.212 569.121,195.712 558.5,198C 535.441,198.793 525.607,187.627 529,164.5C 532.331,154.991 538.831,149.324 548.5,147.5 Z"/></g>
<g><path style="opacity:1" fill="#040404" d="M 627.5,159.5 C 627.5,171.833 627.5,184.167 627.5,196.5C 623.5,196.5 619.5,196.5 615.5,196.5C 615.666,186.161 615.5,175.828 615,165.5C 614.262,160.294 611.262,157.961 606,158.5C 601.281,158.546 598.281,160.879 597,165.5C 596.5,175.828 596.334,186.161 596.5,196.5C 592.167,196.5 587.833,196.5 583.5,196.5C 583.5,180.833 583.5,165.167 583.5,149.5C 587.5,149.5 591.5,149.5 595.5,149.5C 595.338,151.527 595.505,153.527 596,155.5C 603.57,146.865 612.403,145.365 622.5,151C 625.072,153.313 626.739,156.146 627.5,159.5 Z"/></g>
<g><path style="opacity:1" fill="#0c0c0c" d="M 653.5,147.5 C 672.519,147.852 681.519,157.519 680.5,176.5C 669.167,176.5 657.833,176.5 646.5,176.5C 647.699,187.078 653.366,190.578 663.5,187C 668,182.534 673.333,181.367 679.5,183.5C 676.891,191.273 671.557,196.107 663.5,198C 648.778,200.228 638.944,194.394 634,180.5C 630.795,163.556 637.295,152.556 653.5,147.5 Z"/></g>
<g><path style="opacity:1" fill="#9b9b9b" d="M 693.5,149.5 C 688.968,149.182 684.634,149.515 680.5,150.5C 679.957,150.44 679.624,150.107 679.5,149.5C 684.318,148.188 688.985,148.188 693.5,149.5 Z"/></g>
<g><path style="opacity:1" fill="#080808" d="M 693.5,149.5 C 697.171,159.821 701.005,170.155 705,180.5C 708.33,170.171 711.497,159.838 714.5,149.5C 719.179,149.334 723.845,149.501 728.5,150C 721.272,168.351 714.438,186.851 708,205.5C 706.108,209.058 703.275,211.558 699.5,213C 694.511,213.499 689.511,213.666 684.5,213.5C 684.5,209.833 684.5,206.167 684.5,202.5C 687.85,202.665 691.183,202.498 694.5,202C 696.007,200.527 696.674,198.693 696.5,196.5C 691.765,180.961 686.431,165.627 680.5,150.5C 684.634,149.515 688.968,149.182 693.5,149.5 Z"/></g>
<g><path style="opacity:1" fill="#fff5de" d="M 318.5,143.5 C 317.419,145.764 316.085,147.931 314.5,150C 333.167,150.333 351.833,150.667 370.5,151C 377.032,152.034 381.699,155.534 384.5,161.5C 381.698,158.358 378.365,156.025 374.5,154.5C 372.786,153.262 370.786,152.595 368.5,152.5C 349.5,151.833 330.5,151.167 311.5,150.5C 311.5,150.167 311.5,149.833 311.5,149.5C 313.833,147.5 316.167,145.5 318.5,143.5 Z"/></g>
<g><path style="opacity:1" fill="#ffcd90" d="M 311.5,150.5 C 330.5,151.167 349.5,151.833 368.5,152.5C 349.155,152.833 329.822,152.5 310.5,151.5C 310.624,150.893 310.957,150.56 311.5,150.5 Z"/></g>
<g><path style="opacity:1" fill="#e8852c" d="M 311.5,149.5 C 311.5,149.833 311.5,150.167 311.5,150.5C 310.957,150.56 310.624,150.893 310.5,151.5C 329.822,152.5 349.155,152.833 368.5,152.5C 370.786,152.595 372.786,153.262 374.5,154.5C 352.86,153.544 331.193,153.211 309.5,153.5C 309.157,151.517 309.824,150.183 311.5,149.5 Z"/></g>
<g><path style="opacity:1" fill="#a3a3a3" d="M 466.5,154.5 C 465.833,168.5 465.167,182.5 464.5,196.5C 464.333,181.163 464.5,165.83 465,150.5C 465.791,151.745 466.291,153.078 466.5,154.5 Z"/></g>
<g><path style="opacity:1" fill="#f8f8f8" d="M 549.5,157.5 C 559.475,157.475 564.475,162.475 564.5,172.5C 564.464,186.407 558.13,190.907 545.5,186C 541.751,179.71 540.584,172.877 542,165.5C 543.69,161.979 546.19,159.312 549.5,157.5 Z"/></g>
<g><path style="opacity:1" fill="#f4f4f4" d="M 653.5,157.5 C 661.294,156.645 665.96,159.978 667.5,167.5C 660.5,167.5 653.5,167.5 646.5,167.5C 647.276,163.06 649.61,159.727 653.5,157.5 Z"/></g>
<g><path style="opacity:1" fill="#666666" d="M 627.5,159.5 C 628.495,171.989 628.829,184.656 628.5,197.5C 623.968,197.818 619.634,197.485 615.5,196.5C 619.5,196.5 623.5,196.5 627.5,196.5C 627.5,184.167 627.5,171.833 627.5,159.5 Z"/></g>
<g><path style="opacity:1" fill="#5f5f5f" d="M 522.5,196.5 C 518.03,197.486 513.363,197.819 508.5,197.5C 508.829,182.324 508.496,167.324 507.5,152.5C 507.369,151.624 507.702,150.957 508.5,150.5C 509.499,165.819 509.833,181.152 509.5,196.5C 513.833,196.5 518.167,196.5 522.5,196.5 Z"/></g>
<g><path style="opacity:1" fill="#f39340" d="M 244.5,193.5 C 247.127,194.105 249.793,194.605 252.5,195C 292.165,195.5 331.832,195.667 371.5,195.5C 371.082,196.222 370.416,196.722 369.5,197C 329.501,197.5 289.501,197.667 249.5,197.5C 247.833,196.167 246.167,194.833 244.5,193.5 Z"/></g>
<g><path style="opacity:1" fill="#fff7e1" d="M 371.5,195.5 C 372.833,195.5 374.167,195.5 375.5,195.5C 374.4,196.558 373.066,197.392 371.5,198C 330.665,198.831 289.998,198.665 249.5,197.5C 289.501,197.667 329.501,197.5 369.5,197C 370.416,196.722 371.082,196.222 371.5,195.5 Z"/></g>
</svg>
