<?xml version="1.0" encoding="UTF-8"?>
<!DOCTYPE svg PUBLIC "-//W3C//DTD SVG 1.1//EN" "http://www.w3.org/Graphics/SVG/1.1/DTD/svg11.dtd">
<svg xmlns="http://www.w3.org/2000/svg" version="1.1" width="800px" height="450px" style="shape-rendering:geometricPrecision; text-rendering:geometricPrecision; image-rendering:optimizeQuality; fill-rule:evenodd; clip-rule:evenodd" xmlns:xlink="http://www.w3.org/1999/xlink">
<g><path style="opacity:1" fill="#1dc7fe" d="M -0.5,-0.5 C 266.167,-0.5 532.833,-0.5 799.5,-0.5C 799.5,149.5 799.5,299.5 799.5,449.5C 532.833,449.5 266.167,449.5 -0.5,449.5C -0.5,299.5 -0.5,149.5 -0.5,-0.5 Z"/></g>
<g><path style="opacity:1" fill="#1492bb" d="M 156.5,72.5 C 149.833,72.5 143.167,72.5 136.5,72.5C 139.695,70.9704 143.195,70.3037 147,70.5C 149.5,70.6667 152,70.8333 154.5,71C 155.416,71.2784 156.082,71.7784 156.5,72.5 Z"/></g>
<g><path style="opacity:1" fill="#093f51" d="M 136.5,72.5 C 143.167,72.5 149.833,72.5 156.5,72.5C 158.786,72.595 160.786,73.2616 162.5,74.5C 151.5,73.1667 140.5,73.1667 129.5,74.5C 131.438,72.8372 133.772,72.1706 136.5,72.5 Z"/></g>
<g><path style="opacity:1" fill="#020303" d="M 162.5,74.5 C 165.884,74.5168 168.884,75.5168 171.5,77.5C 172.635,79.2132 174.302,79.8799 176.5,79.5C 176.5,79.8333 176.5,80.1667 176.5,80.5C 181.747,84.4042 186.747,88.7376 191.5,93.5C 192.5,94.8333 193.5,96.1667 194.5,97.5C 195.015,101.299 196.681,104.299 199.5,106.5C 199.557,107.609 199.89,108.609 200.5,109.5C 200.41,112.152 201.076,114.485 202.5,116.5C 203.434,123.706 204.768,130.706 206.5,137.5C 206.5,138.833 206.5,140.167 206.5,141.5C 207.2,145.798 207.533,150.131 207.5,154.5C 208.029,159.822 208.529,165.156 209,170.5C 209.278,171.416 209.778,172.082 210.5,172.5C 210.833,172.5 211.167,172.5 211.5,172.5C 211.5,173.833 211.5,175.167 211.5,176.5C 212.162,180.466 212.495,184.466 212.5,188.5C 212.116,192.489 212.783,196.155 214.5,199.5C 214.5,200.167 214.5,200.833 214.5,201.5C 215.051,204.807 215.384,208.14 215.5,211.5C 215.557,222.89 217.224,233.89 220.5,244.5C 220.621,255.224 221.954,265.558 224.5,275.5C 225.468,277.607 225.802,279.941 225.5,282.5C 226.878,294.545 226.544,306.545 224.5,318.5C 224.5,318.833 224.5,319.167 224.5,319.5C 222.926,321.102 222.259,323.102 222.5,325.5C 220.755,327.033 219.755,329.033 219.5,331.5C 219.608,333.514 218.942,335.18 217.5,336.5C 215.05,338.629 213.383,341.296 212.5,344.5C 210.5,345.833 208.833,347.5 207.5,349.5C 205.5,348.833 203.5,348.167 201.5,347.5C 201.389,346.883 201.056,346.383 200.5,346C 192.833,344 185.167,344 177.5,346C 176.429,346.852 175.429,347.685 174.5,348.5C 171.109,349.529 168.443,351.529 166.5,354.5C 164.413,355.585 163.08,357.251 162.5,359.5C 160.75,360.659 159.75,362.326 159.5,364.5C 157.926,366.102 157.259,368.102 157.5,370.5C 156.631,372.717 156.298,375.05 156.5,377.5C 149.833,377.5 143.167,377.5 136.5,377.5C 136.813,373.958 136.479,370.625 135.5,367.5C 134.833,366.167 134.167,364.833 133.5,363.5C 133.573,361.973 132.906,360.973 131.5,360.5C 130.92,358.251 129.587,356.585 127.5,355.5C 126.415,353.413 124.749,352.08 122.5,351.5C 120.853,349.674 118.853,348.34 116.5,347.5C 116.389,346.883 116.056,346.383 115.5,346C 113.527,345.505 111.527,345.338 109.5,345.5C 105.354,344.353 101.02,344.186 96.5,345C 94.4308,346.523 92.0974,347.357 89.5,347.5C 88.391,347.557 87.391,347.89 86.5,348.5C 85.0613,346.64 83.3947,344.973 81.5,343.5C 81.573,341.973 80.9063,340.973 79.5,340.5C 78.917,337.053 77.5837,334.053 75.5,331.5C 74.2632,330.035 73.2632,328.368 72.5,326.5C 71.9367,322.365 70.9367,318.365 69.5,314.5C 68.1667,302.833 68.1667,291.167 69.5,279.5C 69.5,278.5 69.5,277.5 69.5,276.5C 71.017,272.44 71.6836,268.107 71.5,263.5C 71.3333,260.5 71.1667,257.5 71,254.5C 70.7216,253.584 70.2216,252.918 69.5,252.5C 69.5,252.167 69.5,251.833 69.5,251.5C 68.9213,248.669 67.588,246.336 65.5,244.5C 53.8123,232.146 41.8123,220.146 29.5,208.5C 27.0289,204.837 24.6956,201.004 22.5,197C 21.9839,194.331 21.3173,191.831 20.5,189.5C 20.4126,184.463 20.746,179.463 21.5,174.5C 21.722,171.496 22.722,168.829 24.5,166.5C 26.5224,164.469 28.1891,162.135 29.5,159.5C 32.2446,158.263 34.5779,156.43 36.5,154C 39.8168,153.502 43.1501,153.335 46.5,153.5C 47.5846,155.587 49.2512,156.92 51.5,157.5C 54.1413,159.804 56.808,162.138 59.5,164.5C 60.5846,166.587 62.2512,167.92 64.5,168.5C 66.2393,171.243 68.5726,173.243 71.5,174.5C 72.9108,176.914 74.9108,178.581 77.5,179.5C 78.2623,181.262 79.5956,182.262 81.5,182.5C 83.2605,176.413 84.2605,170.08 84.5,163.5C 84.5,162.167 84.5,160.833 84.5,159.5C 85.2679,158.737 85.7679,157.737 86,156.5C 86.3905,151.146 86.8905,145.812 87.5,140.5C 88.6874,134.227 89.354,127.894 89.5,121.5C 91.411,117.767 92.7444,113.767 93.5,109.5C 95.5,105.167 97.5,100.833 99.5,96.5C 103.964,92.5368 108.298,88.3702 112.5,84C 117.766,81.099 122.766,77.9323 127.5,74.5C 128.167,74.5 128.833,74.5 129.5,74.5C 140.5,73.1667 151.5,73.1667 162.5,74.5 Z"/></g>
<g><path style="opacity:1" fill="#1281a5" d="M 171.5,77.5 C 173.698,77.1201 175.365,77.7868 176.5,79.5C 174.302,79.8799 172.635,79.2132 171.5,77.5 Z"/></g>
<g><path style="opacity:1" fill="#0c556c" d="M 127.5,74.5 C 122.766,77.9323 117.766,81.099 112.5,84C 108.298,88.3702 103.964,92.5368 99.5,96.5C 106.211,85.8133 115.544,78.48 127.5,74.5 Z"/></g>
<g><path style="opacity:1" fill="#0f6885" d="M 176.5,80.5 C 177.873,80.3433 179.207,80.51 180.5,81C 184.77,84.7615 188.437,88.9281 191.5,93.5C 186.747,88.7376 181.747,84.4042 176.5,80.5 Z"/></g>
<g><path style="opacity:1" fill="#1593bc" d="M 99.5,96.5 C 97.5,100.833 95.5,105.167 93.5,109.5C 93.1667,109.5 92.8333,109.5 92.5,109.5C 93.6367,105.583 94.47,101.583 95,97.5C 96.7106,98.5814 98.2106,98.248 99.5,96.5 Z"/></g>
<g><path style="opacity:1" fill="#0a3b4c" d="M 194.5,97.5 C 196.527,100.22 198.193,103.22 199.5,106.5C 196.681,104.299 195.015,101.299 194.5,97.5 Z"/></g>
<g><path style="opacity:1" fill="#094052" d="M 200.5,109.5 C 201.924,111.515 202.59,113.848 202.5,116.5C 201.076,114.485 200.41,112.152 200.5,109.5 Z"/></g>
<g><path style="opacity:1" fill="#7a7b7b" d="M 168.5,115.5 C 166.097,115.448 163.764,115.781 161.5,116.5C 162.312,115.007 163.645,114.34 165.5,114.5C 166.726,114.52 167.726,114.853 168.5,115.5 Z"/></g>
<g><path style="opacity:1" fill="#656565" d="M 124.5,115.5 C 125.449,114.848 126.615,114.514 128,114.5C 130.008,114.307 131.508,114.974 132.5,116.5C 129.904,115.735 127.237,115.401 124.5,115.5 Z"/></g>
<g><path style="opacity:1" fill="#f5f5f5" d="M 124.5,115.5 C 127.237,115.401 129.904,115.735 132.5,116.5C 132.833,117.5 133.5,118.167 134.5,118.5C 135.265,121.096 135.599,123.763 135.5,126.5C 135.229,128.43 134.229,129.764 132.5,130.5C 128.615,132.016 124.948,131.682 121.5,129.5C 119.696,124.183 120.696,119.516 124.5,115.5 Z"/></g>
<g><path style="opacity:1" fill="#f3f3f3" d="M 168.5,115.5 C 170.23,116.026 171.564,117.026 172.5,118.5C 173.299,121.43 173.632,124.43 173.5,127.5C 170.633,132.011 166.633,133.345 161.5,131.5C 160.488,130.128 159.488,128.795 158.5,127.5C 158.368,124.43 158.701,121.43 159.5,118.5C 159.833,117.5 160.5,116.833 161.5,116.5C 163.764,115.781 166.097,115.448 168.5,115.5 Z"/></g>
<g><path style="opacity:1" fill="#0c546b" d="M 92.5,109.5 C 92.8333,109.5 93.1667,109.5 93.5,109.5C 92.7444,113.767 91.411,117.767 89.5,121.5C 89.5,121.167 89.5,120.833 89.5,120.5C 90.2967,116.777 91.2967,113.11 92.5,109.5 Z"/></g>
<g><path style="opacity:1" fill="#a8a9a9" d="M 124.5,115.5 C 120.696,119.516 119.696,124.183 121.5,129.5C 120.778,129.082 120.278,128.416 120,127.5C 119.333,124.833 119.333,122.167 120,119.5C 120.748,117.249 122.248,115.916 124.5,115.5 Z"/></g>
<g><path style="opacity:1" fill="#545555" d="M 134.5,118.5 C 136.026,119.492 136.693,120.992 136.5,123C 136.486,124.385 136.152,125.551 135.5,126.5C 135.599,123.763 135.265,121.096 134.5,118.5 Z"/></g>
<g><path style="opacity:1" fill="#148db4" d="M 202.5,116.5 C 203.79,117.058 204.623,118.058 205,119.5C 205.699,125.489 206.199,131.489 206.5,137.5C 204.768,130.706 203.434,123.706 202.5,116.5 Z"/></g>
<g><path style="opacity:1" fill="#18a6d4" d="M 89.5,120.5 C 89.5,120.833 89.5,121.167 89.5,121.5C 89.354,127.894 88.6874,134.227 87.5,140.5C 87.1667,140.5 86.8333,140.5 86.5,140.5C 86.1718,135.125 86.5052,129.792 87.5,124.5C 88.1719,123.051 88.8386,121.718 89.5,120.5 Z"/></g>
<g><path style="opacity:1" fill="#797a7a" d="M 159.5,118.5 C 158.701,121.43 158.368,124.43 158.5,127.5C 157.366,125.034 157.199,122.367 158,119.5C 158.383,118.944 158.883,118.611 159.5,118.5 Z"/></g>
<g><path style="opacity:1" fill="#838383" d="M 172.5,118.5 C 173.117,118.611 173.617,118.944 174,119.5C 174.801,122.367 174.634,125.034 173.5,127.5C 173.632,124.43 173.299,121.43 172.5,118.5 Z"/></g>
<g><path style="opacity:1" fill="#c1c1c1" d="M 121.5,129.5 C 124.948,131.682 128.615,132.016 132.5,130.5C 132.389,131.117 132.056,131.617 131.5,132C 128.833,132.667 126.167,132.667 123.5,132C 122.619,131.292 121.953,130.458 121.5,129.5 Z"/></g>
<g><path style="opacity:1" fill="#4b4c4c" d="M 173.5,127.5 C 173.607,129.903 172.607,131.736 170.5,133C 167.833,133.667 165.167,133.667 162.5,133C 161.944,132.617 161.611,132.117 161.5,131.5C 166.633,133.345 170.633,132.011 173.5,127.5 Z"/></g>
<g><path style="opacity:1" fill="#8f4b13" d="M 157.5,144.5 C 153.507,144.168 149.507,143.835 145.5,143.5C 140.687,143.912 136.021,144.912 131.5,146.5C 131.5,146.167 131.5,145.833 131.5,145.5C 135.992,143.082 140.825,142.082 146,142.5C 150.133,142.286 153.966,142.952 157.5,144.5 Z"/></g>
<g><path style="opacity:1" fill="#ed7c1f" d="M 157.5,144.5 C 158.167,144.5 158.833,144.5 159.5,144.5C 160.635,146.213 162.302,146.88 164.5,146.5C 166.403,146.796 168.07,147.463 169.5,148.5C 171.961,149.531 174.627,150.198 177.5,150.5C 177.5,151.5 177.5,152.5 177.5,153.5C 176.833,153.5 176.5,153.833 176.5,154.5C 174.368,154.554 173.035,155.554 172.5,157.5C 172.167,157.5 171.833,157.5 171.5,157.5C 166.925,159.108 162.925,161.441 159.5,164.5C 158.5,164.5 157.5,164.5 156.5,164.5C 155.167,164.5 153.833,164.5 152.5,164.5C 145.713,164.799 139.046,164.132 132.5,162.5C 131.209,162.737 130.209,162.404 129.5,161.5C 129.196,160.85 128.863,160.183 128.5,159.5C 125.675,158.745 123.009,157.745 120.5,156.5C 119.19,154.852 117.857,153.186 116.5,151.5C 117.602,150.824 118.602,150.158 119.5,149.5C 123.485,148.512 127.485,147.512 131.5,146.5C 136.021,144.912 140.687,143.912 145.5,143.5C 149.507,143.835 153.507,144.168 157.5,144.5 Z"/></g>
<g><path style="opacity:1" fill="#62330e" d="M 159.5,144.5 C 161.403,144.796 163.07,145.463 164.5,146.5C 162.302,146.88 160.635,146.213 159.5,144.5 Z"/></g>
<g><path style="opacity:1" fill="#3b210b" d="M 131.5,145.5 C 131.5,145.833 131.5,146.167 131.5,146.5C 127.485,147.512 123.485,148.512 119.5,149.5C 117.833,149.5 116.167,149.5 114.5,149.5C 119.915,147.595 125.582,146.261 131.5,145.5 Z"/></g>
<g><path style="opacity:1" fill="#6c3910" d="M 169.5,148.5 C 172.579,148.26 175.579,148.593 178.5,149.5C 179.809,151.24 179.476,152.573 177.5,153.5C 177.5,152.5 177.5,151.5 177.5,150.5C 174.627,150.198 171.961,149.531 169.5,148.5 Z"/></g>
<g><path style="opacity:1" fill="#884812" d="M 114.5,149.5 C 116.167,149.5 117.833,149.5 119.5,149.5C 118.602,150.158 117.602,150.824 116.5,151.5C 117.857,153.186 119.19,154.852 120.5,156.5C 117.054,155.388 115.054,153.055 114.5,149.5 Z"/></g>
<g><path style="opacity:1" fill="#1598c2" d="M 206.5,141.5 C 209.974,151.316 211.641,161.649 211.5,172.5C 211.167,172.5 210.833,172.5 210.5,172.5C 210.353,166.091 209.353,160.091 207.5,154.5C 207.533,150.131 207.2,145.798 206.5,141.5 Z"/></g>
<g><path style="opacity:1" fill="#0e647f" d="M 46.5,153.5 C 48.7488,154.08 50.4154,155.413 51.5,157.5C 49.2512,156.92 47.5846,155.587 46.5,153.5 Z"/></g>
<g><path style="opacity:1" fill="#0f6c8b" d="M 86.5,140.5 C 86.8333,140.5 87.1667,140.5 87.5,140.5C 86.8905,145.812 86.3905,151.146 86,156.5C 85.7679,157.737 85.2679,158.737 84.5,159.5C 84.6972,152.974 85.3639,146.641 86.5,140.5 Z"/></g>
<g><path style="opacity:1" fill="#0a465a" d="M 46.5,153.5 C 43.1501,153.335 39.8168,153.502 36.5,154C 34.5779,156.43 32.2446,158.263 29.5,159.5C 33.4247,152.682 39.0914,150.682 46.5,153.5 Z"/></g>
<g><path style="opacity:1" fill="#6d3a10" d="M 176.5,154.5 C 175.564,155.974 174.23,156.974 172.5,157.5C 173.035,155.554 174.368,154.554 176.5,154.5 Z"/></g>
<g><path style="opacity:1" fill="#b45f18" d="M 120.5,156.5 C 123.009,157.745 125.675,158.745 128.5,159.5C 128.863,160.183 129.196,160.85 129.5,161.5C 128.833,161.5 128.167,161.5 127.5,161.5C 124.63,160.567 122.296,158.9 120.5,156.5 Z"/></g>
<g><path style="opacity:1" fill="#884812" d="M 171.5,157.5 C 167.992,160.57 163.992,162.903 159.5,164.5C 162.925,161.441 166.925,159.108 171.5,157.5 Z"/></g>
<g><path style="opacity:1" fill="#0b5066" d="M 29.5,159.5 C 28.1891,162.135 26.5224,164.469 24.5,166.5C 25.0693,163.281 26.736,160.948 29.5,159.5 Z"/></g>
<g><path style="opacity:1" fill="#5d310d" d="M 127.5,161.5 C 128.167,161.5 128.833,161.5 129.5,161.5C 130.209,162.404 131.209,162.737 132.5,162.5C 132.833,163.167 133.167,163.833 133.5,164.5C 131.033,164.245 129.033,163.245 127.5,161.5 Z"/></g>
<g><path style="opacity:1" fill="#0f6d8b" d="M 59.5,164.5 C 61.7488,165.08 63.4154,166.413 64.5,168.5C 62.2512,167.92 60.5846,166.587 59.5,164.5 Z"/></g>
<g><path style="opacity:1" fill="#ba6118" d="M 132.5,162.5 C 139.046,164.132 145.713,164.799 152.5,164.5C 146.651,165.664 140.651,165.664 134.5,164.5C 134.167,164.5 133.833,164.5 133.5,164.5C 133.167,163.833 132.833,163.167 132.5,162.5 Z"/></g>
<g><path style="opacity:1" fill="#61330d" d="M 134.5,164.5 C 140.651,165.664 146.651,165.664 152.5,164.5C 153.833,164.5 155.167,164.5 156.5,164.5C 156.082,165.222 155.416,165.722 154.5,166C 151.667,166.167 148.833,166.333 146,166.5C 141.867,166.714 138.034,166.048 134.5,164.5 Z"/></g>
<g><path style="opacity:1" fill="#39ccff" d="M 546.5,279.5 C 546.832,243.663 546.498,207.996 545.5,172.5C 537.016,171.507 528.349,171.174 519.5,171.5C 520.069,175.329 519.402,178.663 517.5,181.5C 511.865,176.849 505.532,173.516 498.5,171.5C 498.082,170.778 497.416,170.278 496.5,170C 489.833,169.333 483.167,169.333 476.5,170C 475.584,170.278 474.918,170.778 474.5,171.5C 465.612,173.731 457.946,178.065 451.5,184.5C 451.67,183.178 451.337,182.011 450.5,181C 451.448,180.517 452.448,180.351 453.5,180.5C 453.297,178.61 453.963,177.11 455.5,176C 459.523,173.657 463.523,171.324 467.5,169C 473.979,168.157 480.313,166.99 486.5,165.5C 493.101,167.054 499.768,168.221 506.5,169C 509.383,171.609 512.717,173.442 516.5,174.5C 516.564,173.635 516.897,172.635 517.5,171.5C 527.394,170.182 537.227,170.182 547,171.5C 547.831,207.669 547.664,243.669 546.5,279.5 Z"/></g>
<g><path style="opacity:1" fill="#43cdff" d="M 764.5,186.5 C 757.29,178.953 748.623,173.953 738.5,171.5C 738.082,170.778 737.416,170.278 736.5,170C 728.5,169.333 720.5,169.333 712.5,170C 711.263,170.232 710.263,170.732 709.5,171.5C 705.774,171.574 702.774,173.074 700.5,176C 693.495,177.927 687.662,181.761 683,187.5C 679.324,193.02 675.824,198.686 672.5,204.5C 669.602,214.973 668.768,225.64 670,236.5C 672.557,241.159 674.057,246.159 674.5,251.5C 673.504,251.586 672.671,251.252 672,250.5C 670.253,247.79 669.253,244.79 669,241.5C 668.333,230.5 668.333,219.5 669,208.5C 672.454,201.926 675.621,195.26 678.5,188.5C 680.942,188.646 681.609,187.813 680.5,186C 682.135,184.252 684.135,183.085 686.5,182.5C 685.391,180.786 686.058,180.119 688.5,180.5C 688.297,178.61 688.963,177.11 690.5,176C 696.825,171.673 703.659,168.506 711,166.5C 719.963,165.245 728.963,165.245 738,166.5C 746.671,168.543 754.004,172.21 760,177.5C 760.999,180.832 762.499,183.832 764.5,186.5 Z"/></g>
<g><path style="opacity:1" fill="#127fa2" d="M 64.5,168.5 C 67.4274,169.757 69.7607,171.757 71.5,174.5C 68.5726,173.243 66.2393,171.243 64.5,168.5 Z"/></g>
<g><path style="opacity:1" fill="#0a2a35" d="M 207.5,154.5 C 209.353,160.091 210.353,166.091 210.5,172.5C 209.778,172.082 209.278,171.416 209,170.5C 208.529,165.156 208.029,159.822 207.5,154.5 Z"/></g>
<g><path style="opacity:1" fill="#c6f0ff" d="M 738.5,171.5 C 728.833,170.167 719.167,170.167 709.5,171.5C 710.263,170.732 711.263,170.232 712.5,170C 720.5,169.333 728.5,169.333 736.5,170C 737.416,170.278 738.082,170.778 738.5,171.5 Z"/></g>
<g><path style="opacity:1" fill="#b5ecff" d="M 498.5,171.5 C 490.5,170.167 482.5,170.167 474.5,171.5C 474.918,170.778 475.584,170.278 476.5,170C 483.167,169.333 489.833,169.333 496.5,170C 497.416,170.278 498.082,170.778 498.5,171.5 Z"/></g>
<g><path style="opacity:1" fill="#fcfeff" d="M 498.5,171.5 C 505.532,173.516 511.865,176.849 517.5,181.5C 518.209,182.404 519.209,182.737 520.5,182.5C 520.5,179.167 520.5,175.833 520.5,172.5C 528.833,172.5 537.167,172.5 545.5,172.5C 545.5,207.833 545.5,243.167 545.5,278.5C 537.167,278.5 528.833,278.5 520.5,278.5C 520.81,275.287 520.477,272.287 519.5,269.5C 514.273,271.784 509.273,274.617 504.5,278C 480.895,286.043 461.728,280.21 447,260.5C 443.613,255.715 440.779,250.715 438.5,245.5C 436.707,235.614 436.04,225.614 436.5,215.5C 436.667,209.635 438.333,204.301 441.5,199.5C 443.753,195.243 446.419,191.243 449.5,187.5C 449.427,185.973 450.094,184.973 451.5,184.5C 457.946,178.065 465.612,173.731 474.5,171.5C 482.5,170.167 490.5,170.167 498.5,171.5 Z"/></g>
<g><path style="opacity:1" fill="#fcfeff" d="M 738.5,171.5 C 748.623,173.953 757.29,178.953 764.5,186.5C 770.765,194.53 775.098,203.53 777.5,213.5C 777.5,220.833 777.5,228.167 777.5,235.5C 750.5,235.5 723.5,235.5 696.5,235.5C 696.263,236.791 696.596,237.791 697.5,238.5C 700.445,247.111 706.112,253.111 714.5,256.5C 714.611,257.117 714.944,257.617 715.5,258C 720.833,258.667 726.167,258.667 731.5,258C 732.056,257.617 732.389,257.117 732.5,256.5C 734.812,255.68 737.146,254.847 739.5,254C 741.431,251.054 743.764,248.554 746.5,246.5C 756.227,245.861 765.56,246.528 774.5,248.5C 774.5,249.167 774.5,249.833 774.5,250.5C 772.473,253.22 770.807,256.22 769.5,259.5C 765.5,264.167 761.167,268.5 756.5,272.5C 755.426,273.885 754.093,275.051 752.5,276C 746.496,277.67 740.496,279.337 734.5,281C 717.226,283.85 701.893,279.85 688.5,269C 683.147,263.506 678.481,257.673 674.5,251.5C 674.057,246.159 672.557,241.159 670,236.5C 668.768,225.64 669.602,214.973 672.5,204.5C 675.824,198.686 679.324,193.02 683,187.5C 687.662,181.761 693.495,177.927 700.5,176C 702.774,173.074 705.774,171.574 709.5,171.5C 719.167,170.167 728.833,170.167 738.5,171.5 Z"/></g>
<g><path style="opacity:1" fill="#a7e9ff" d="M 299.5,171.5 C 299.5,172.167 299.5,172.833 299.5,173.5C 290.25,172.528 280.917,172.195 271.5,172.5C 271.5,173.5 271.5,174.5 271.5,175.5C 270.566,174.432 270.232,173.099 270.5,171.5C 280.167,171.5 289.833,171.5 299.5,171.5 Z"/></g>
<g><path style="opacity:1" fill="#aae9ff" d="M 545.5,172.5 C 537.167,172.5 528.833,172.5 520.5,172.5C 520.5,175.833 520.5,179.167 520.5,182.5C 519.209,182.737 518.209,182.404 517.5,181.5C 519.402,178.663 520.069,175.329 519.5,171.5C 528.349,171.174 537.016,171.507 545.5,172.5 Z"/></g>
<g><path style="opacity:1" fill="#a7e9ff" d="M 587.5,176.5 C 585.896,175.713 585.229,174.38 585.5,172.5C 576.5,172.5 567.5,172.5 558.5,172.5C 558.5,173.5 558.5,174.5 558.5,175.5C 557.566,174.432 557.232,173.099 557.5,171.5C 567.167,171.5 576.833,171.5 586.5,171.5C 586.629,173.216 586.962,174.883 587.5,176.5 Z"/></g>
<g><path style="opacity:1" fill="#a8e9ff" d="M 639.5,172.5 C 648.652,171.506 657.985,171.173 667.5,171.5C 667.737,172.791 667.404,173.791 666.5,174.5C 657.895,172.529 648.895,171.862 639.5,172.5 Z"/></g>
<g><path style="opacity:1" fill="#cdf2ff" d="M 364.5,171.5 C 366.081,173.142 366.747,175.142 366.5,177.5C 365.751,176.469 365.085,175.302 364.5,174C 355.84,173.5 347.173,173.334 338.5,173.5C 338.598,175.553 337.931,177.22 336.5,178.5C 336.317,176.064 336.984,173.897 338.5,172C 347.16,171.5 355.827,171.334 364.5,171.5 Z"/></g>
<g><path style="opacity:1" fill="#fbfeff" d="M 299.5,173.5 C 299.952,177.163 300.452,180.83 301,184.5C 301.278,185.416 301.778,186.082 302.5,186.5C 304.906,194.721 306.906,203.054 308.5,211.5C 309.43,215.796 310.263,220.13 311,224.5C 311.383,225.056 311.883,225.389 312.5,225.5C 314.021,229.652 314.854,233.985 315,238.5C 315.727,241.155 316.894,243.488 318.5,245.5C 321.135,237.714 323.135,229.714 324.5,221.5C 327.747,216.46 329.414,210.793 329.5,204.5C 331.846,195.803 334.179,187.136 336.5,178.5C 337.931,177.22 338.598,175.553 338.5,173.5C 347.173,173.334 355.84,173.5 364.5,174C 365.085,175.302 365.751,176.469 366.5,177.5C 367.491,181.746 368.825,185.746 370.5,189.5C 374.264,208.052 379.098,226.386 385,244.5C 386.517,240.954 387.85,237.288 389,233.5C 393.734,213.468 398.567,193.468 403.5,173.5C 413.144,172.502 422.81,172.168 432.5,172.5C 422.271,206.861 411.604,241.194 400.5,275.5C 399.522,275.811 398.855,276.478 398.5,277.5C 389.525,278.498 380.525,278.832 371.5,278.5C 369.373,271.613 367.54,264.613 366,257.5C 365.617,256.944 365.117,256.611 364.5,256.5C 364.784,254.585 364.451,252.919 363.5,251.5C 360.599,237.692 357.099,224.025 353,210.5C 352,209.167 351,209.167 350,210.5C 349.178,213.117 348.678,215.784 348.5,218.5C 346.997,223.698 345.663,229.032 344.5,234.5C 341.255,243.258 338.422,252.258 336,261.5C 335.39,264.827 334.89,268.161 334.5,271.5C 332.926,273.102 332.259,275.102 332.5,277.5C 322.916,278.473 313.25,278.806 303.5,278.5C 294.334,249.487 285.334,220.487 276.5,191.5C 275.806,186.085 274.14,181.085 271.5,176.5C 271.5,176.167 271.5,175.833 271.5,175.5C 271.5,174.5 271.5,173.5 271.5,172.5C 280.917,172.195 290.25,172.528 299.5,173.5 Z"/></g>
<g><path style="opacity:1" fill="#aae9ff" d="M 545.5,172.5 C 546.498,207.996 546.832,243.663 546.5,279.5C 537.5,279.5 528.5,279.5 519.5,279.5C 519.5,276.167 519.5,272.833 519.5,269.5C 520.477,272.287 520.81,275.287 520.5,278.5C 528.833,278.5 537.167,278.5 545.5,278.5C 545.5,243.167 545.5,207.833 545.5,172.5 Z"/></g>
<g><path style="opacity:1" fill="#fafdff" d="M 587.5,176.5 C 595.233,201.032 603.566,225.365 612.5,249.5C 613.957,247.725 615.124,245.725 616,243.5C 618.36,234.259 621.193,225.259 624.5,216.5C 627.879,210.721 630.212,204.388 631.5,197.5C 633.376,188.872 636.043,180.539 639.5,172.5C 648.895,171.862 657.895,172.529 666.5,174.5C 666.5,174.833 666.5,175.167 666.5,175.5C 663.266,184.844 659.599,194.177 655.5,203.5C 654.883,203.611 654.383,203.944 654,204.5C 652.364,211.085 650.198,217.418 647.5,223.5C 643.498,236.674 638.998,249.674 634,262.5C 633,263.5 632,264.5 631,265.5C 630.265,270.359 629.099,275.026 627.5,279.5C 617.5,279.5 607.5,279.5 597.5,279.5C 595.677,270.17 592.344,261.503 587.5,253.5C 586.767,247.941 585.267,242.607 583,237.5C 579.352,227.544 575.185,217.877 570.5,208.5C 566.348,197.561 562.348,186.561 558.5,175.5C 558.5,174.5 558.5,173.5 558.5,172.5C 567.5,172.5 576.5,172.5 585.5,172.5C 585.229,174.38 585.896,175.713 587.5,176.5 Z"/></g>
<g><path style="opacity:1" fill="#127ea1" d="M 71.5,174.5 C 74.0892,175.419 76.0892,177.086 77.5,179.5C 74.9108,178.581 72.9108,176.914 71.5,174.5 Z"/></g>
<g><path style="opacity:1" fill="#0b4c61" d="M 84.5,163.5 C 84.2605,170.08 83.2605,176.413 81.5,182.5C 81.4919,175.876 82.4919,169.543 84.5,163.5 Z"/></g>
<g><path style="opacity:1" fill="#42cdff" d="M 364.5,171.5 C 355.827,171.334 347.16,171.5 338.5,172C 336.984,173.897 336.317,176.064 336.5,178.5C 334.179,187.136 331.846,195.803 329.5,204.5C 327.611,209.987 325.945,215.654 324.5,221.5C 323.135,229.714 321.135,237.714 318.5,245.5C 316.894,243.488 315.727,241.155 315,238.5C 314.854,233.985 314.021,229.652 312.5,225.5C 312.289,220.4 310.955,215.734 308.5,211.5C 306.906,203.054 304.906,194.721 302.5,186.5C 302.483,184.435 302.15,182.435 301.5,180.5C 302.5,180.5 303.5,180.5 304.5,180.5C 304.917,184.835 305.417,189.168 306,193.5C 307.922,198.399 310.089,203.232 312.5,208C 312.043,208.414 311.709,208.914 311.5,209.5C 314.521,216.494 316.688,223.494 318,230.5C 321.312,223.323 323.312,215.989 324,208.5C 324.923,205.878 326.089,203.378 327.5,201C 327.167,200 326.833,199 326.5,198C 327.826,192.203 329.826,186.703 332.5,181.5C 331.998,180.284 331.665,179.117 331.5,178C 332.793,177.51 334.127,177.343 335.5,177.5C 335.5,175.167 335.5,172.833 335.5,170.5C 345.348,170.173 355.014,170.506 364.5,171.5 Z"/></g>
<g><path style="opacity:1" fill="#0d5c75" d="M 21.5,174.5 C 20.746,179.463 20.4126,184.463 20.5,189.5C 20.1667,189.5 19.8333,189.5 19.5,189.5C 19.3343,185.154 19.501,180.821 20,176.5C 20.2784,175.584 20.7784,174.918 21.5,174.5 Z"/></g>
<g><path style="opacity:1" fill="#43ceff" d="M 299.5,171.5 C 289.833,171.5 280.167,171.5 270.5,171.5C 270.232,173.099 270.566,174.432 271.5,175.5C 271.5,175.833 271.5,176.167 271.5,176.5C 272.17,180.851 273.004,185.184 274,189.5C 274.708,190.381 275.542,191.047 276.5,191.5C 285.334,220.487 294.334,249.487 303.5,278.5C 312.986,279.494 322.652,279.827 332.5,279.5C 321.993,280.823 311.326,280.823 300.5,279.5C 299.263,277.221 297.93,275.055 296.5,273C 296.665,271.883 296.998,270.716 297.5,269.5C 293.965,259.997 290.298,250.497 286.5,241C 287.051,239.602 287.384,238.268 287.5,237C 283.906,227.285 280.239,217.619 276.5,208C 276.833,207 277.167,206 277.5,205C 274.764,200.704 272.764,196.037 271.5,191C 271.957,190.586 272.291,190.086 272.5,189.5C 270.723,184.517 269.389,179.351 268.5,174C 268.585,172.893 268.919,171.893 269.5,171C 279.675,170.175 289.675,170.342 299.5,171.5 Z"/></g>
<g><path style="opacity:1" fill="#b7ecff" d="M 299.5,173.5 C 300.117,173.611 300.617,173.944 301,174.5C 301.495,176.473 301.662,178.473 301.5,180.5C 302.15,182.435 302.483,184.435 302.5,186.5C 301.778,186.082 301.278,185.416 301,184.5C 300.452,180.83 299.952,177.163 299.5,173.5 Z"/></g>
<g><path style="opacity:1" fill="#83deff" d="M 271.5,176.5 C 274.14,181.085 275.806,186.085 276.5,191.5C 275.542,191.047 274.708,190.381 274,189.5C 273.004,185.184 272.17,180.851 271.5,176.5 Z"/></g>
<g><path style="opacity:1" fill="#148cb3" d="M 211.5,176.5 C 213.396,181.064 214.396,186.064 214.5,191.5C 213.833,190.5 213.167,189.5 212.5,188.5C 212.495,184.466 212.162,180.466 211.5,176.5 Z"/></g>
<g><path style="opacity:1" fill="#42cdff" d="M 666.5,175.5 C 666.008,180.641 664.675,185.474 662.5,190C 663.466,192.933 663.466,195.599 662.5,198C 660.371,202.426 658.371,206.926 656.5,211.5C 656.709,212.086 657.043,212.586 657.5,213C 654.05,220.836 650.383,228.669 646.5,236.5C 646.709,237.086 647.043,237.586 647.5,238C 645.845,239.444 645.178,241.278 645.5,243.5C 644.5,243.5 643.5,243.5 642.5,243.5C 641.528,247.571 639.695,251.238 637,254.5C 636.441,258.186 635.774,261.853 635,265.5C 632.555,270.424 630.388,275.424 628.5,280.5C 616.833,280.5 605.167,280.5 593.5,280.5C 593.822,278.278 593.155,276.444 591.5,275C 591.833,274.667 592.167,274.333 592.5,274C 588.885,266.203 585.219,258.203 581.5,250C 581.833,249.667 582.167,249.333 582.5,249C 580.887,246.772 580.22,244.272 580.5,241.5C 580.435,241.062 580.601,240.728 581,240.5C 582.946,243.139 583.946,246.139 584,249.5C 584.74,251.319 585.907,252.652 587.5,253.5C 592.344,261.503 595.677,270.17 597.5,279.5C 607.5,279.5 617.5,279.5 627.5,279.5C 629.099,275.026 630.265,270.359 631,265.5C 632,264.5 633,263.5 634,262.5C 638.998,249.674 643.498,236.674 647.5,223.5C 652.261,217.814 654.927,211.147 655.5,203.5C 659.599,194.177 663.266,184.844 666.5,175.5 Z"/></g>
<g><path style="opacity:1" fill="#b2ebff" d="M 449.5,187.5 C 446.419,191.243 443.753,195.243 441.5,199.5C 442.244,194.111 444.911,190.111 449.5,187.5 Z"/></g>
<g><path style="opacity:1" fill="#64d6ff" d="M 743.5,201.5 C 732.821,195.302 721.488,193.969 709.5,197.5C 710.574,195.716 712.24,194.549 714.5,194C 723.707,191.613 732.374,192.946 740.5,198C 741.71,199.039 742.71,200.206 743.5,201.5 Z"/></g>
<g><path style="opacity:1" fill="#17a1cd" d="M 19.5,189.5 C 19.8333,189.5 20.1667,189.5 20.5,189.5C 21.3173,191.831 21.9839,194.331 22.5,197C 24.6956,201.004 27.0289,204.837 29.5,208.5C 22.6173,204.159 19.2839,197.825 19.5,189.5 Z"/></g>
<g><path style="opacity:1" fill="#23c8ff" d="M 743.5,201.5 C 744.031,203.544 745.198,205.211 747,206.5C 747.813,208.436 748.313,210.436 748.5,212.5C 731.833,212.5 715.167,212.5 698.5,212.5C 698.5,211.5 698.5,210.5 698.5,209.5C 700.774,204.226 704.44,200.226 709.5,197.5C 721.488,193.969 732.821,195.302 743.5,201.5 Z"/></g>
<g><path style="opacity:1" fill="#083847" d="M 212.5,188.5 C 213.167,189.5 213.833,190.5 214.5,191.5C 214.5,194.167 214.5,196.833 214.5,199.5C 212.783,196.155 212.116,192.489 212.5,188.5 Z"/></g>
<g><path style="opacity:1" fill="#26c9ff" d="M 516.5,213.5 C 517.632,218.76 518.299,224.093 518.5,229.5C 513.679,250.902 500.679,259.069 479.5,254C 470.886,249.247 465.886,242.08 464.5,232.5C 464.5,226.5 464.5,220.5 464.5,214.5C 473.152,194.689 487.152,189.856 506.5,200C 509.333,202.833 512.167,205.667 515,208.5C 516.009,210.025 516.509,211.692 516.5,213.5 Z"/></g>
<g><path style="opacity:1" fill="#888888" d="M 151.5,200.5 C 146.507,200.916 141.507,201.249 136.5,201.5C 141.421,199.507 146.421,199.174 151.5,200.5 Z"/></g>
<g><path style="opacity:1" fill="#bfeeff" d="M 631.5,197.5 C 630.212,204.388 627.879,210.721 624.5,216.5C 625.864,209.736 628.197,203.402 631.5,197.5 Z"/></g>
<g><path style="opacity:1" fill="#4f5050" d="M 151.5,200.5 C 153.527,200.338 155.527,200.505 157.5,201C 158.056,201.383 158.389,201.883 158.5,202.5C 155.99,202.073 153.657,201.407 151.5,200.5 Z"/></g>
<g><path style="opacity:1" fill="#fdfdfd" d="M 151.5,200.5 C 153.657,201.407 155.99,202.073 158.5,202.5C 159.167,202.5 159.5,202.833 159.5,203.5C 161.808,204.793 164.142,206.126 166.5,207.5C 167.789,208.637 168.789,209.97 169.5,211.5C 170.419,214.089 172.086,216.089 174.5,217.5C 174.5,218.833 175.167,219.5 176.5,219.5C 176.755,221.967 177.755,223.967 179.5,225.5C 179.427,227.027 180.094,228.027 181.5,228.5C 181.595,230.786 182.262,232.786 183.5,234.5C 183.362,240.297 184.696,245.631 187.5,250.5C 187.5,251.5 187.5,252.5 187.5,253.5C 188.257,263.482 188.59,273.482 188.5,283.5C 187.6,288.332 186.934,293.332 186.5,298.5C 186.5,298.833 186.5,299.167 186.5,299.5C 183.51,303.213 181.843,307.547 181.5,312.5C 181.5,313.167 181.5,313.833 181.5,314.5C 178.932,316.027 177.599,318.361 177.5,321.5C 176.833,321.5 176.5,321.833 176.5,322.5C 171.833,327.833 166.833,332.833 161.5,337.5C 158.28,339.02 154.947,340.353 151.5,341.5C 146.463,341.587 141.463,341.254 136.5,340.5C 136.5,340.167 136.5,339.833 136.5,339.5C 134.967,337.755 132.967,336.755 130.5,336.5C 129.089,334.086 127.089,332.419 124.5,331.5C 122.263,329.353 120.263,327.02 118.5,324.5C 117.89,322.566 116.89,320.899 115.5,319.5C 114.662,319.158 114.328,318.492 114.5,317.5C 114.573,315.973 113.906,314.973 112.5,314.5C 110.887,310.268 109.554,305.935 108.5,301.5C 108.184,296.156 107.684,290.822 107,285.5C 106.623,284.058 105.79,283.058 104.5,282.5C 104.5,282.167 104.5,281.833 104.5,281.5C 104.2,270.087 104.867,258.754 106.5,247.5C 106.433,246.041 106.766,244.708 107.5,243.5C 108.167,243.5 108.5,243.167 108.5,242.5C 110.626,238.555 111.626,234.222 111.5,229.5C 112.338,229.158 112.672,228.492 112.5,227.5C 114.104,226.713 114.771,225.38 114.5,223.5C 114.5,222.833 114.833,222.5 115.5,222.5C 116.401,221.71 117.068,220.71 117.5,219.5C 117.427,217.973 118.094,216.973 119.5,216.5C 123.833,212.833 127.833,208.833 131.5,204.5C 133.027,204.573 134.027,203.906 134.5,202.5C 135.492,202.672 136.158,202.338 136.5,201.5C 141.507,201.249 146.507,200.916 151.5,200.5 Z"/></g>
<g><path style="opacity:1" fill="#696969" d="M 134.5,202.5 C 134.027,203.906 133.027,204.573 131.5,204.5C 131.973,203.094 132.973,202.427 134.5,202.5 Z"/></g>
<g><path style="opacity:1" fill="#444545" d="M 159.5,203.5 C 162.812,203.149 165.145,204.482 166.5,207.5C 164.142,206.126 161.808,204.793 159.5,203.5 Z"/></g>
<g><path style="opacity:1" fill="#0e6480" d="M 214.5,201.5 C 215.222,201.918 215.722,202.584 216,203.5C 216.497,206.146 216.664,208.813 216.5,211.5C 216.167,211.5 215.833,211.5 215.5,211.5C 215.384,208.14 215.051,204.807 214.5,201.5 Z"/></g>
<g><path style="opacity:1" fill="#999999" d="M 131.5,204.5 C 127.833,208.833 123.833,212.833 119.5,216.5C 122.5,211.5 126.5,207.5 131.5,204.5 Z"/></g>
<g><path style="opacity:1" fill="#59d5ff" d="M 743.5,201.5 C 746.647,203.313 748.647,205.98 749.5,209.5C 749.5,210.833 749.5,212.167 749.5,213.5C 732.325,213.83 715.325,213.497 698.5,212.5C 715.167,212.5 731.833,212.5 748.5,212.5C 748.313,210.436 747.813,208.436 747,206.5C 745.198,205.211 744.031,203.544 743.5,201.5 Z"/></g>
<g><path style="opacity:1" fill="#b3ebff" d="M 329.5,204.5 C 329.414,210.793 327.747,216.46 324.5,221.5C 325.945,215.654 327.611,209.987 329.5,204.5 Z"/></g>
<g><path style="opacity:1" fill="#9ce5ff" d="M 655.5,203.5 C 654.927,211.147 652.261,217.814 647.5,223.5C 650.198,217.418 652.364,211.085 654,204.5C 654.383,203.944 654.883,203.611 655.5,203.5 Z"/></g>
<g><path style="opacity:1" fill="#98e5ff" d="M 698.5,209.5 C 698.5,210.5 698.5,211.5 698.5,212.5C 715.325,213.497 732.325,213.83 749.5,213.5C 749.5,212.167 749.5,210.833 749.5,209.5C 750.451,210.919 750.784,212.585 750.5,214.5C 732.833,214.5 715.167,214.5 697.5,214.5C 697.216,212.585 697.549,210.919 698.5,209.5 Z"/></g>
<g><path style="opacity:1" fill="#a3a3a3" d="M 169.5,211.5 C 171.914,212.911 173.581,214.911 174.5,217.5C 172.086,216.089 170.419,214.089 169.5,211.5 Z"/></g>
<g><path style="opacity:1" fill="#148cb3" d="M 216.5,211.5 C 217.222,211.918 217.722,212.584 218,213.5C 218.499,217.152 218.665,220.818 218.5,224.5C 217.551,220.343 216.884,216.01 216.5,211.5 Z"/></g>
<g><path style="opacity:1" fill="#45ceff" d="M 364.5,256.5 C 365.117,256.611 365.617,256.944 366,257.5C 367.54,264.613 369.373,271.613 371.5,278.5C 380.675,279.822 390.008,279.822 399.5,278.5C 400.127,277.583 400.461,276.583 400.5,275.5C 411.604,241.194 422.271,206.861 432.5,172.5C 422.81,172.168 413.144,172.502 403.5,173.5C 398.567,193.468 393.734,213.468 389,233.5C 387.85,237.288 386.517,240.954 385,244.5C 379.098,226.386 374.264,208.052 370.5,189.5C 371.404,190.209 371.737,191.209 371.5,192.5C 372.833,192.5 374.167,192.5 375.5,192.5C 375.055,195.365 375.722,197.865 377.5,200C 376.949,201.398 376.616,202.732 376.5,204C 379.624,212.553 382.29,221.053 384.5,229.5C 385.5,228.5 386.5,227.5 387.5,226.5C 386.998,225.284 386.665,224.117 386.5,223C 388.766,217.558 390.766,212.058 392.5,206.5C 391.998,205.284 391.665,204.117 391.5,203C 393.722,197.635 395.722,192.135 397.5,186.5C 396.998,185.284 396.665,184.117 396.5,183C 398.001,178.818 399.501,174.651 401,170.5C 401.414,170.957 401.914,171.291 402.5,171.5C 407.657,170.217 412.99,169.55 418.5,169.5C 423.5,169.667 428.5,169.833 433.5,170C 434.191,171.067 434.691,172.234 435,173.5C 435.424,169.81 436.258,169.643 437.5,173C 436.236,178.037 434.236,182.704 431.5,187C 431.833,188 432.167,189 432.5,190C 430.554,194.638 428.554,199.305 426.5,204C 426.833,204.333 427.167,204.667 427.5,205C 422.957,209.142 421.29,214.142 422.5,220C 421.183,225.767 419.183,231.267 416.5,236.5C 416.709,237.086 417.043,237.586 417.5,238C 413.591,247.383 409.924,256.883 406.5,266.5C 407.002,267.716 407.335,268.883 407.5,270C 405.8,273.332 404.467,276.832 403.5,280.5C 392.48,280.832 381.48,280.499 370.5,279.5C 366.697,272.403 364.697,264.736 364.5,256.5 Z"/></g>
<g><path style="opacity:1" fill="#c1efff" d="M 308.5,211.5 C 310.955,215.734 312.289,220.4 312.5,225.5C 311.883,225.389 311.383,225.056 311,224.5C 310.263,220.13 309.43,215.796 308.5,211.5 Z"/></g>
<g><path style="opacity:1" fill="#737373" d="M 174.5,217.5 C 175.833,217.5 176.5,218.167 176.5,219.5C 176.5,218.167 175.833,217.5 174.5,217.5 Z"/></g>
<g><path style="opacity:1" fill="#5b5c5c" d="M 117.5,219.5 C 117.068,220.71 116.401,221.71 115.5,222.5C 115.285,220.821 115.952,219.821 117.5,219.5 Z"/></g>
<g><path style="opacity:1" fill="#808181" d="M 176.5,219.5 C 178.245,221.033 179.245,223.033 179.5,225.5C 177.755,223.967 176.755,221.967 176.5,219.5 Z"/></g>
<g><path style="opacity:1" fill="#7dddff" d="M 464.5,214.5 C 464.5,220.5 464.5,226.5 464.5,232.5C 463.191,230.429 462.525,227.929 462.5,225C 462.304,221.195 462.97,217.695 464.5,214.5 Z"/></g>
<g><path style="opacity:1" fill="#b3ecff" d="M 516.5,213.5 C 518.13,215.026 518.963,217.026 519,219.5C 519.808,223.027 519.641,226.36 518.5,229.5C 518.299,224.093 517.632,218.76 516.5,213.5 Z"/></g>
<g><path style="opacity:1" fill="#0a1e25" d="M 215.5,211.5 C 215.833,211.5 216.167,211.5 216.5,211.5C 216.884,216.01 217.551,220.343 218.5,224.5C 219.495,231.13 220.162,237.797 220.5,244.5C 217.224,233.89 215.557,222.89 215.5,211.5 Z"/></g>
<g><path style="opacity:1" fill="#616262" d="M 114.5,223.5 C 114.771,225.38 114.104,226.713 112.5,227.5C 112.66,225.847 113.326,224.514 114.5,223.5 Z"/></g>
<g><path style="opacity:1" fill="#646565" d="M 179.5,225.5 C 180.906,225.973 181.573,226.973 181.5,228.5C 180.094,228.027 179.427,227.027 179.5,225.5 Z"/></g>
<g><path style="opacity:1" fill="#a7e8ff" d="M 777.5,213.5 C 778.268,214.263 778.768,215.263 779,216.5C 779.5,223.158 779.666,229.825 779.5,236.5C 751.813,235.842 724.48,236.509 697.5,238.5C 696.596,237.791 696.263,236.791 696.5,235.5C 723.5,235.5 750.5,235.5 777.5,235.5C 777.5,228.167 777.5,220.833 777.5,213.5 Z"/></g>
<g><path style="opacity:1" fill="#5ed4ff" d="M 570.5,208.5 C 575.185,217.877 579.352,227.544 583,237.5C 585.267,242.607 586.767,247.941 587.5,253.5C 585.907,252.652 584.74,251.319 584,249.5C 583.946,246.139 582.946,243.139 581,240.5C 580.601,240.728 580.435,241.062 580.5,241.5C 578.38,235.149 576.546,228.482 575,221.5C 571.946,217.769 570.446,213.435 570.5,208.5 Z"/></g>
<g><path style="opacity:1" fill="#6bd8ff" d="M 363.5,251.5 C 359.995,240.085 356.329,228.585 352.5,217C 352.167,216.5 351.833,216 351.5,215.5C 350.265,216.34 349.265,217.34 348.5,218.5C 348.678,215.784 349.178,213.117 350,210.5C 351,209.167 352,209.167 353,210.5C 357.099,224.025 360.599,237.692 363.5,251.5 Z"/></g>
<g><path style="opacity:1" fill="#8de2ff" d="M 436.5,215.5 C 436.04,225.614 436.707,235.614 438.5,245.5C 437.4,243.723 436.566,241.723 436,239.5C 435.177,231.323 435.344,223.323 436.5,215.5 Z"/></g>
<g><path style="opacity:1" fill="#c2c3c3" d="M 111.5,229.5 C 111.626,234.222 110.626,238.555 108.5,242.5C 108.517,240.435 108.85,238.435 109.5,236.5C 109.41,233.848 110.076,231.515 111.5,229.5 Z"/></g>
<g><path style="opacity:1" fill="#7d7e7e" d="M 109.5,236.5 C 108.85,238.435 108.517,240.435 108.5,242.5C 108.5,243.167 108.167,243.5 107.5,243.5C 107.338,241.473 107.505,239.473 108,237.5C 108.383,236.944 108.883,236.611 109.5,236.5 Z"/></g>
<g><path style="opacity:1" fill="#83e1ff" d="M 746.5,245.5 C 756.319,244.506 766.319,244.173 776.5,244.5C 776.768,246.099 776.434,247.432 775.5,248.5C 775.5,247.5 775.5,246.5 775.5,245.5C 765.833,245.5 756.167,245.5 746.5,245.5 Z"/></g>
<g><path style="opacity:1" fill="#c5f1ff" d="M 746.5,246.5 C 746.5,246.167 746.5,245.833 746.5,245.5C 756.167,245.5 765.833,245.5 775.5,245.5C 775.5,246.5 775.5,247.5 775.5,248.5C 775.167,248.5 774.833,248.5 774.5,248.5C 765.56,246.528 756.227,245.861 746.5,246.5 Z"/></g>
<g><path style="opacity:1" fill="#adaeae" d="M 183.5,234.5 C 185.687,239.162 187.021,244.162 187.5,249.5C 187.5,249.833 187.5,250.167 187.5,250.5C 184.696,245.631 183.362,240.297 183.5,234.5 Z"/></g>
<g><path style="opacity:1" fill="#107292" d="M 65.5,244.5 C 67.588,246.336 68.9213,248.669 69.5,251.5C 69.1667,251.5 68.8333,251.5 68.5,251.5C 66.7061,249.572 65.7061,247.238 65.5,244.5 Z"/></g>
<g><path style="opacity:1" fill="#7c7d7d" d="M 106.5,247.5 C 104.867,258.754 104.2,270.087 104.5,281.5C 103.343,273.01 103.176,264.343 104,255.5C 104.546,252.621 105.379,249.954 106.5,247.5 Z"/></g>
<g><path style="opacity:1" fill="#4b4c4c" d="M 187.5,249.5 C 188.924,251.515 189.59,253.848 189.5,256.5C 188.833,255.5 188.167,254.5 187.5,253.5C 187.5,252.5 187.5,251.5 187.5,250.5C 187.5,250.167 187.5,249.833 187.5,249.5 Z"/></g>
<g><path style="opacity:1" fill="#92e3ff" d="M 774.5,250.5 C 773.985,254.299 772.319,257.299 769.5,259.5C 770.807,256.22 772.473,253.22 774.5,250.5 Z"/></g>
<g><path style="opacity:1" fill="#6cd9ff" d="M 344.5,234.5 C 342.447,247.312 339.114,259.645 334.5,271.5C 334.89,268.161 335.39,264.827 336,261.5C 338.422,252.258 341.255,243.258 344.5,234.5 Z"/></g>
<g><path style="opacity:1" fill="#bfefff" d="M 714.5,256.5 C 720.5,257.833 726.5,257.833 732.5,256.5C 732.389,257.117 732.056,257.617 731.5,258C 726.167,258.667 720.833,258.667 715.5,258C 714.944,257.617 714.611,257.117 714.5,256.5 Z"/></g>
<g><path style="opacity:1" fill="#19b0e1" d="M 68.5,251.5 C 68.8333,251.5 69.1667,251.5 69.5,251.5C 69.5,251.833 69.5,252.167 69.5,252.5C 70.6136,260.485 70.6136,268.485 69.5,276.5C 69.5,277.5 69.5,278.5 69.5,279.5C 68.71,280.609 68.21,281.942 68,283.5C 67.2705,293.527 67.4372,303.527 68.5,313.5C 67.8826,313.389 67.3826,313.056 67,312.5C 66.8333,306.667 66.6667,300.833 66.5,295C 67.6016,280.515 68.2682,266.015 68.5,251.5 Z"/></g>
<g><path style="opacity:1" fill="#0b5269" d="M 69.5,252.5 C 70.2216,252.918 70.7216,253.584 71,254.5C 71.1667,257.5 71.3333,260.5 71.5,263.5C 71.6836,268.107 71.017,272.44 69.5,276.5C 70.6136,268.485 70.6136,260.485 69.5,252.5 Z"/></g>
<g><path style="opacity:1" fill="#7eddff" d="M 769.5,259.5 C 769.657,260.873 769.49,262.207 769,263.5C 765.87,265.628 763.037,268.128 760.5,271C 759.255,271.791 757.922,272.291 756.5,272.5C 761.167,268.5 765.5,264.167 769.5,259.5 Z"/></g>
<g><path style="opacity:1" fill="#1591b9" d="M 223.5,259.5 C 224.787,260.871 225.453,262.705 225.5,265C 226.193,270.815 226.526,276.648 226.5,282.5C 226.167,282.5 225.833,282.5 225.5,282.5C 225.802,279.941 225.468,277.607 224.5,275.5C 224.608,270.13 224.275,264.797 223.5,259.5 Z"/></g>
<g><path style="opacity:1" fill="#a8a8a8" d="M 187.5,253.5 C 188.167,254.5 188.833,255.5 189.5,256.5C 189.5,265.5 189.5,274.5 189.5,283.5C 189.167,283.5 188.833,283.5 188.5,283.5C 188.59,273.482 188.257,263.482 187.5,253.5 Z"/></g>
<g><path style="opacity:1" fill="#09232c" d="M 220.5,244.5 C 221.585,249.39 222.585,254.39 223.5,259.5C 224.275,264.797 224.608,270.13 224.5,275.5C 221.954,265.558 220.621,255.224 220.5,244.5 Z"/></g>
<g><path style="opacity:1" fill="#b8edff" d="M 332.5,277.5 C 332.5,278.167 332.5,278.833 332.5,279.5C 322.652,279.827 312.986,279.494 303.5,278.5C 313.25,278.806 322.916,278.473 332.5,277.5 Z"/></g>
<g><path style="opacity:1" fill="#bdeeff" d="M 400.5,275.5 C 400.461,276.583 400.127,277.583 399.5,278.5C 390.008,279.822 380.675,279.822 371.5,278.5C 380.525,278.832 389.525,278.498 398.5,277.5C 398.855,276.478 399.522,275.811 400.5,275.5 Z"/></g>
<g><path style="opacity:1" fill="#c7c7c7" d="M 104.5,282.5 C 105.79,283.058 106.623,284.058 107,285.5C 107.684,290.822 108.184,296.156 108.5,301.5C 106.088,295.503 104.755,289.17 104.5,282.5 Z"/></g>
<g><path style="opacity:1" fill="#083745" d="M 225.5,282.5 C 225.833,282.5 226.167,282.5 226.5,282.5C 226.5,282.833 226.5,283.167 226.5,283.5C 227.371,291.8 227.705,300.133 227.5,308.5C 227.048,312.091 226.048,315.425 224.5,318.5C 226.544,306.545 226.878,294.545 225.5,282.5 Z"/></g>
<g><path style="opacity:1" fill="#148ab1" d="M 226.5,283.5 C 227.268,284.263 227.768,285.263 228,286.5C 228.822,294.012 228.655,301.345 227.5,308.5C 227.705,300.133 227.371,291.8 226.5,283.5 Z"/></g>
<g><path style="opacity:1" fill="#4f5050" d="M 188.5,283.5 C 188.833,283.5 189.167,283.5 189.5,283.5C 189.225,288.777 188.225,293.777 186.5,298.5C 186.934,293.332 187.6,288.332 188.5,283.5 Z"/></g>
<g><path style="opacity:1" fill="#0b4d62" d="M 69.5,279.5 C 68.1667,291.167 68.1667,302.833 69.5,314.5C 69.1667,314.5 68.8333,314.5 68.5,314.5C 68.5,314.167 68.5,313.833 68.5,313.5C 67.4372,303.527 67.2705,293.527 68,283.5C 68.21,281.942 68.71,280.609 69.5,279.5 Z"/></g>
<g><path style="opacity:1" fill="#606060" d="M 186.5,299.5 C 185.65,303.553 184.484,307.553 183,311.5C 182.617,312.056 182.117,312.389 181.5,312.5C 181.843,307.547 183.51,303.213 186.5,299.5 Z"/></g>
<g><path style="opacity:1" fill="#646565" d="M 112.5,314.5 C 113.906,314.973 114.573,315.973 114.5,317.5C 113.094,317.027 112.427,316.027 112.5,314.5 Z"/></g>
<g><path style="opacity:1" fill="#1488ad" d="M 68.5,314.5 C 68.8333,314.5 69.1667,314.5 69.5,314.5C 70.9367,318.365 71.9367,322.365 72.5,326.5C 71.8826,326.389 71.3826,326.056 71,325.5C 69.85,321.888 69.0166,318.222 68.5,314.5 Z"/></g>
<g><path style="opacity:1" fill="#505151" d="M 181.5,314.5 C 180.549,317.102 179.216,319.435 177.5,321.5C 177.599,318.361 178.932,316.027 181.5,314.5 Z"/></g>
<g><path style="opacity:1" fill="#464747" d="M 115.5,319.5 C 116.89,320.899 117.89,322.566 118.5,324.5C 116.241,323.656 115.241,321.989 115.5,319.5 Z"/></g>
<g><path style="opacity:1" fill="#0d5e78" d="M 224.5,319.5 C 224.741,321.898 224.074,323.898 222.5,325.5C 222.259,323.102 222.926,321.102 224.5,319.5 Z"/></g>
<g><path style="opacity:1" fill="#777878" d="M 176.5,322.5 C 173.167,329.167 168.167,334.167 161.5,337.5C 166.833,332.833 171.833,327.833 176.5,322.5 Z"/></g>
<g><path style="opacity:1" fill="#0a475a" d="M 222.5,325.5 C 222.245,327.967 221.245,329.967 219.5,331.5C 219.755,329.033 220.755,327.033 222.5,325.5 Z"/></g>
<g><path style="opacity:1" fill="#0e627d" d="M 75.5,331.5 C 77.5837,334.053 78.917,337.053 79.5,340.5C 78.0688,339.097 76.9022,337.431 76,335.5C 75.51,334.207 75.3433,332.873 75.5,331.5 Z"/></g>
<g><path style="opacity:1" fill="#999999" d="M 124.5,331.5 C 127.089,332.419 129.089,334.086 130.5,336.5C 127.911,335.581 125.911,333.914 124.5,331.5 Z"/></g>
<g><path style="opacity:1" fill="#aeaeae" d="M 130.5,336.5 C 132.967,336.755 134.967,337.755 136.5,339.5C 133.687,339.975 131.687,338.975 130.5,336.5 Z"/></g>
<g><path style="opacity:1" fill="#0d5a73" d="M 217.5,336.5 C 216.617,339.704 214.95,342.371 212.5,344.5C 213.383,341.296 215.05,338.629 217.5,336.5 Z"/></g>
<g><path style="opacity:1" fill="#6c6c6c" d="M 136.5,340.5 C 141.463,341.254 146.463,341.587 151.5,341.5C 148.375,342.479 145.042,342.813 141.5,342.5C 139.597,342.204 137.93,341.537 136.5,340.5 Z"/></g>
<g><path style="opacity:1" fill="#353535" d="M 161.5,337.5 C 155.807,343.195 149.14,344.862 141.5,342.5C 145.042,342.813 148.375,342.479 151.5,341.5C 154.947,340.353 158.28,339.02 161.5,337.5 Z"/></g>
<g><path style="opacity:1" fill="#713c10" d="M 201.5,347.5 C 192.388,344.809 183.388,345.142 174.5,348.5C 175.429,347.685 176.429,346.852 177.5,346C 185.167,344 192.833,344 200.5,346C 201.056,346.383 201.389,346.883 201.5,347.5 Z"/></g>
<g><path style="opacity:1" fill="#ba6218" d="M 109.5,345.5 C 111.657,346.407 113.99,347.073 116.5,347.5C 118.853,348.34 120.853,349.674 122.5,351.5C 111.453,346.98 100.12,346.314 88.5,349.5C 88.8333,348.833 89.1667,348.167 89.5,347.5C 92.0974,347.357 94.4308,346.523 96.5,345C 101.02,344.186 105.354,344.353 109.5,345.5 Z"/></g>
<g><path style="opacity:1" fill="#512b0c" d="M 109.5,345.5 C 111.527,345.338 113.527,345.505 115.5,346C 116.056,346.383 116.389,346.883 116.5,347.5C 113.99,347.073 111.657,346.407 109.5,345.5 Z"/></g>
<g><path style="opacity:1" fill="#f07e1f" d="M 122.5,351.5 C 124.749,352.08 126.415,353.413 127.5,355.5C 128.08,357.749 129.413,359.415 131.5,360.5C 131.427,362.027 132.094,363.027 133.5,363.5C 134.167,364.833 134.833,366.167 135.5,367.5C 135.5,370.5 135.5,373.5 135.5,376.5C 114.5,376.5 93.5,376.5 72.5,376.5C 73.6262,370.193 75.6262,364.193 78.5,358.5C 78.8333,357.833 79.1667,357.167 79.5,356.5C 79.5,355.167 80.1667,354.5 81.5,354.5C 82.8333,353.833 83.8333,352.833 84.5,351.5C 84.8333,350.5 85.5,349.833 86.5,349.5C 87.1667,349.5 87.8333,349.5 88.5,349.5C 100.12,346.314 111.453,346.98 122.5,351.5 Z"/></g>
<g><path style="opacity:1" fill="#f07e1f" d="M 201.5,347.5 C 203.5,348.167 205.5,348.833 207.5,349.5C 207.5,350.167 207.833,350.5 208.5,350.5C 210.167,352.833 212.167,354.833 214.5,356.5C 215.925,357.922 216.925,359.589 217.5,361.5C 218.548,366.347 219.548,371.181 220.5,376C 199.836,376.5 179.169,376.667 158.5,376.5C 158.5,374.5 158.5,372.5 158.5,370.5C 159.15,368.565 159.483,366.565 159.5,364.5C 161.408,363.514 162.408,361.848 162.5,359.5C 164.935,358.73 166.269,357.063 166.5,354.5C 169.533,352.984 172.2,350.984 174.5,348.5C 183.388,345.142 192.388,344.809 201.5,347.5 Z"/></g>
<g><path style="opacity:1" fill="#298dab" d="M 81.5,343.5 C 83.3947,344.973 85.0613,346.64 86.5,348.5C 86.5,348.833 86.5,349.167 86.5,349.5C 85.5,349.833 84.8333,350.5 84.5,351.5C 84.1667,351.5 83.8333,351.5 83.5,351.5C 83.7128,348.549 83.0461,345.882 81.5,343.5 Z"/></g>
<g><path style="opacity:1" fill="#572f0e" d="M 89.5,347.5 C 89.1667,348.167 88.8333,348.833 88.5,349.5C 87.8333,349.5 87.1667,349.5 86.5,349.5C 86.5,349.167 86.5,348.833 86.5,348.5C 87.391,347.89 88.391,347.557 89.5,347.5 Z"/></g>
<g><path style="opacity:1" fill="#205566" d="M 212.5,344.5 C 211.585,346.754 210.252,348.754 208.5,350.5C 207.833,350.5 207.5,350.167 207.5,349.5C 208.833,347.5 210.5,345.833 212.5,344.5 Z"/></g>
<g><path style="opacity:1" fill="#854612" d="M 174.5,348.5 C 172.2,350.984 169.533,352.984 166.5,354.5C 168.443,351.529 171.109,349.529 174.5,348.5 Z"/></g>
<g><path style="opacity:1" fill="#7ba8a2" d="M 208.5,350.5 C 211.5,351.5 213.5,353.5 214.5,356.5C 212.167,354.833 210.167,352.833 208.5,350.5 Z"/></g>
<g><path style="opacity:1" fill="#aa986e" d="M 83.5,351.5 C 83.8333,351.5 84.1667,351.5 84.5,351.5C 83.8333,352.833 82.8333,353.833 81.5,354.5C 81.427,352.973 82.0937,351.973 83.5,351.5 Z"/></g>
<g><path style="opacity:1" fill="#a45615" d="M 166.5,354.5 C 166.269,357.063 164.935,358.73 162.5,359.5C 163.08,357.251 164.413,355.585 166.5,354.5 Z"/></g>
<g><path style="opacity:1" fill="#9b9e7e" d="M 79.5,356.5 C 79.1667,357.167 78.8333,357.833 78.5,358.5C 77.8333,358.833 77.1667,359.167 76.5,359.5C 76.5,357.5 77.5,356.5 79.5,356.5 Z"/></g>
<g><path style="opacity:1" fill="#934d13" d="M 127.5,355.5 C 129.587,356.585 130.92,358.251 131.5,360.5C 129.413,359.415 128.08,357.749 127.5,355.5 Z"/></g>
<g><path style="opacity:1" fill="#9d9d7b" d="M 76.5,359.5 C 76.573,361.027 75.9063,362.027 74.5,362.5C 74.427,360.973 75.0937,359.973 76.5,359.5 Z"/></g>
<g><path style="opacity:1" fill="#773f11" d="M 131.5,360.5 C 132.906,360.973 133.573,361.973 133.5,363.5C 132.094,363.027 131.427,362.027 131.5,360.5 Z"/></g>
<g><path style="opacity:1" fill="#9d5215" d="M 162.5,359.5 C 162.408,361.848 161.408,363.514 159.5,364.5C 159.75,362.326 160.75,360.659 162.5,359.5 Z"/></g>
<g><path style="opacity:1" fill="#a79970" d="M 73.5,364.5 C 73.8799,366.698 73.2132,368.365 71.5,369.5C 71.7959,367.597 72.4625,365.93 73.5,364.5 Z"/></g>
<g><path style="opacity:1" fill="#874712" d="M 159.5,364.5 C 159.483,366.565 159.15,368.565 158.5,370.5C 158.167,370.5 157.833,370.5 157.5,370.5C 157.259,368.102 157.926,366.102 159.5,364.5 Z"/></g>
<g><path style="opacity:1" fill="#a39a73" d="M 220.5,366.5 C 221.924,368.515 222.59,370.848 222.5,373.5C 221.076,371.485 220.41,369.152 220.5,366.5 Z"/></g>
<g><path style="opacity:1" fill="#d78031" d="M 78.5,358.5 C 75.6262,364.193 73.6262,370.193 72.5,376.5C 93.5,376.5 114.5,376.5 135.5,376.5C 135.5,373.5 135.5,370.5 135.5,367.5C 136.479,370.625 136.813,373.958 136.5,377.5C 114.833,377.5 93.1667,377.5 71.5,377.5C 71.5,375.5 71.5,373.5 71.5,371.5C 71.5,370.833 71.5,370.167 71.5,369.5C 73.2132,368.365 73.8799,366.698 73.5,364.5C 74.3382,364.158 74.6716,363.492 74.5,362.5C 75.9063,362.027 76.573,361.027 76.5,359.5C 77.1667,359.167 77.8333,358.833 78.5,358.5 Z"/></g>
<g><path style="opacity:1" fill="#d67f31" d="M 217.5,361.5 C 218.167,361.833 218.833,362.167 219.5,362.5C 219.433,363.959 219.766,365.292 220.5,366.5C 220.41,369.152 221.076,371.485 222.5,373.5C 222.5,374.833 222.5,376.167 222.5,377.5C 200.5,377.5 178.5,377.5 156.5,377.5C 156.298,375.05 156.631,372.717 157.5,370.5C 157.833,370.5 158.167,370.5 158.5,370.5C 158.5,372.5 158.5,374.5 158.5,376.5C 179.169,376.667 199.836,376.5 220.5,376C 219.548,371.181 218.548,366.347 217.5,361.5 Z"/></g>
<g><path style="opacity:1" fill="#76a79f" d="M 71.5,371.5 C 71.5,373.5 71.5,375.5 71.5,377.5C 93.1667,377.5 114.833,377.5 136.5,377.5C 114.673,378.497 92.673,378.831 70.5,378.5C 70.5,376.5 70.5,374.5 70.5,372.5C 70.5,371.833 70.8333,371.5 71.5,371.5 Z"/></g>
<g><path style="opacity:1" fill="#45b8db" d="M 219.5,362.5 C 221.65,363.815 222.984,365.815 223.5,368.5C 224.757,371.844 224.757,375.177 223.5,378.5C 172.167,379.833 120.833,379.833 69.5,378.5C 67.9479,376.065 68.2812,374.065 70.5,372.5C 70.5,374.5 70.5,376.5 70.5,378.5C 92.673,378.831 114.673,378.497 136.5,377.5C 143.167,377.5 149.833,377.5 156.5,377.5C 178.5,377.5 200.5,377.5 222.5,377.5C 222.5,376.167 222.5,374.833 222.5,373.5C 222.59,370.848 221.924,368.515 220.5,366.5C 219.766,365.292 219.433,363.959 219.5,362.5 Z"/></g>
</svg>
